<?xml version="1.0" encoding="UTF-8"?>
<svg xmlns="http://www.w3.org/2000/svg" xmlns:xlink="http://www.w3.org/1999/xlink" viewBox="0 0 530.12 530.12">
  <defs>
    <style>
      .h {
        fill: none;
      }

      .i {
        fill: #031210;
      }

      .j {
        fill: #072723;
      }

      .k {
        isolation: isolate;
      }

      .l {
        fill: #062320;
      }

      .m {
        fill: #00c2a9;
      }

      .n {
        fill: #09201e;
      }

      .o {
        fill: #fff;
      }

      .p, .q {
        mix-blend-mode: screen;
      }

      .r {
        opacity: .18;
      }

      .s {
        opacity: .1;
      }

      .t {
        opacity: .09;
      }

      .u {
        opacity: .15;
      }

      .v {
        fill: #7efce1;
      }

      .w {
        clip-path: url(#e);
      }

      .x {
        clip-path: url(#d);
      }

      .y {
        clip-path: url(#f);
      }

      .z {
        clip-path: url(#c);
      }

      .q {
        opacity: .83;
      }
    </style>
    <clipPath id="c">
      <circle class="h" cx="847.95" cy="260.96" r="230.71"/>
    </clipPath>
    <clipPath id="d">
      <circle class="h" cx="265.06" cy="265.06" r="230.71"/>
    </clipPath>
    <clipPath id="e">
      <circle class="h" cx="265.06" cy="265.06" r="230.71"/>
    </clipPath>
    <clipPath id="f">
      <circle class="h" cx="265.06" cy="265.06" r="230.71"/>
    </clipPath>
  </defs>
  <g class="k">
    <g id="b" data-name="Scene">
      <g class="q">
        <g class="z">
          <g class="r">
            <g class="u">
              <path class="o" d="M502.22,379.92s17.37,19.91,17.37,19.91l262.98-104.06c-.06-.08-.13-.17-.19-.25-.19-.24-.37-.48-.55-.72-.22-.29-.43-.59-.65-.89-.27-.39-.53-.77-.79-1.16-.16-.25-.33-.49-.49-.75-.1-.14-.19-.29-.28-.44-.34-.54-.67-1.09-.99-1.64-.24-.41-.47-.82-.69-1.24-.16-.3-.33-.6-.49-.91l-295.15,81.97c5.44,6.98,19.48,9.73,19.91,10.17Z"/>
              <path class="o" d="M483.59,292.24l289.02-18.43c-.14-.73-.27-1.45-.38-2.17-.11-.69-.2-1.38-.28-2.06-.04-.36-.08-.7-.11-1.06-.1-1.05-.17-2.1-.21-3.14l-318.52-13.38c2.25,5.26,27.92,35.64,30.5,40.24Z"/>
              <path class="o" d="M504.76,191.01l268.27,59.27c.14-.58.28-1.16.43-1.72.07-.27.14-.52.21-.77.52-1.85,1.13-3.62,1.8-5.28l-282.15-92.15c0,5.61,10.53,35.31,11.44,40.66Z"/>
            </g>
          </g>
        </g>
      </g>
      <g>
        <circle class="i" cx="265.06" cy="265.06" r="265.06"/>
        <circle class="n" cx="265.06" cy="265.06" r="261.61"/>
        <circle class="m" cx="265.06" cy="265.06" r="260.85"/>
        <circle class="i" cx="265.06" cy="265.06" r="258.04"/>
        <circle class="l" cx="265.06" cy="265.06" r="231.28"/>
        <g class="p">
          <g class="x">
            <g class="t">
              <g>
                <path class="j" d="M158.77,316.18s.04.03.04.03l40.8-16.26c-.06-.08-.13-.17-.19-.25-.19-.24-.37-.48-.55-.72-.22-.29-.43-.59-.65-.89-.27-.39-.53-.77-.79-1.16-.16-.25-.33-.49-.49-.75-.1-.14-.19-.29-.28-.44-.34-.54-.67-1.09-.99-1.64-.24-.41-.47-.82-.69-1.24-.16-.3-.33-.6-.49-.91l-45.62,12.65c5.44,6.98,9.48,11.12,9.9,11.56Z"/>
                <path class="j" d="M133.6,281.68l56.03-3.68c-.14-.73-.27-1.45-.38-2.17-.11-.69-.2-1.38-.28-2.06-.04-.36-.08-.7-.11-1.06-.1-1.05-.17-2.1-.21-3.14l-62.36-2.7c2.25,5.26,4.74,10.22,7.32,14.81Z"/>
                <path class="j" d="M117.77,238.61l72.3,15.86c.14-.58.28-1.16.43-1.72.07-.27.14-.52.21-.77.52-1.85,1.13-3.62,1.8-5.28l-76.17-24.55c0,5.61.52,11.11,1.43,16.46Z"/>
                <path class="j" d="M121.93,190.79l77.96,43c.21-.29.43-.58.65-.87.22-.29.44-.58.67-.87.18-.23.37-.47.56-.71.25-.32.51-.63.77-.95l.09-.11c.75-.9,1.54-1.8,2.36-2.69.16-.18.32-.35.49-.53.34-.36.68-.71,1.02-1.07.46-.48.94-.94,1.41-1.41l-73.77-56.5c-5.41,7.54-9.41,15.14-12.23,22.7Z"/>
                <path class="j" d="M153.47,146.96l64.49,69.28c.83-.59,1.69-1.17,2.55-1.73.29-.19.58-.37.87-.56,1.46-.92,2.97-1.81,4.52-2.65.27-.15.54-.3.82-.44.98-.52,1.97-1.02,2.99-1.5.64-.31,1.3-.61,1.96-.9.33-.14.67-.29,1-.43l-48.26-83.14c-5.39,3.11-10.69,6.5-15.9,10.17-5.53,3.91-10.53,7.87-15.04,11.88Z"/>
                <path class="j" d="M245.08,204c.41-.1.82-.19,1.24-.28.3-.06.61-.13.92-.19.72-.15,1.45-.29,2.19-.42.34-.06.7-.12,1.05-.17.03,0,.06-.01.11-.02.35-.05.71-.11,1.06-.16.37-.06.74-.1,1.12-.15,3.37-.43,6.86-.64,10.46-.61l-9.76-102.95c-14.08,2.94-28.19,7.06-42.02,12.67l33.63,92.28Z"/>
                <path class="j" d="M276.53,203.23c.46.08.92.16,1.38.25,1.29.25,2.56.5,3.79.77.65.14,1.3.28,1.93.43,2.17.49,4.26,1.02,6.27,1.57.54.14,1.06.29,1.58.44.49.14.97.28,1.44.42.35.11.7.22,1.05.32.54.17,1.06.33,1.58.5l43.2-114.39c-15.95-.97-33.02-1.02-50.57.47l-11.66,109.2Z"/>
                <path class="j" d="M308.4,213.04c1.27.61,2.49,1.24,3.67,1.89.44.24.88.49,1.3.73.58.33,1.14.66,1.69,1,.48.29.96.59,1.42.89,1.87,1.2,3.61,2.45,5.22,3.74.27.21.53.42.79.64.22.19.45.38.68.56.03.03.06.06.1.08l113.99-110.7s-.06-.02-.18-.06l-.17-.06c-.06-.02-.14-.05-.22-.07l-.61-.21-.83-.27c-.31-.1-.66-.22-1.04-.34-7.4-2.37-27.66-8.4-55.17-12.83l-70.63,115.01Z"/>
              </g>
              <g class="u">
                <path class="o" d="M610.86,146.03s-17.37-19.91-17.37-19.91l-262.98,104.06c.06.08.13.17.19.25.19.24.37.48.55.72.22.29.43.59.65.89.27.39.53.77.79,1.16.16.25.33.49.49.75.1.14.19.29.28.44.34.54.67,1.09.99,1.64.24.41.47.82.69,1.24.16.3.33.6.49.91l295.15-81.97c-5.44-6.98-19.48-9.73-19.91-10.17Z"/>
                <path class="o" d="M629.49,233.7l-289.02,18.43c.14.73.27,1.45.38,2.17.11.69.2,1.38.28,2.06.04.36.08.7.11,1.06.1,1.05.17,2.1.21,3.14l318.52,13.38c-2.25-5.26-27.92-35.64-30.5-40.24Z"/>
                <path class="o" d="M608.32,334.93l-268.27-59.27c-.14.58-.28,1.16-.43,1.72-.07.27-.14.52-.21.77-.52,1.85-1.13,3.62-1.8,5.28l282.15,92.15c0-5.61-10.53-35.31-11.44-40.66Z"/>
                <path class="o" d="M576.55,433.2l-246.33-136.85c-.21.29-.43.58-.65.87-.22.29-.44.58-.67.87-.18.23-.37.47-.56.71-.25.32-.51.63-.77.95l-.09.11c-.75.9-1.54,1.8-2.36,2.69-.16.18-.32.35-.49.53-.34.36-.68.71-1.02,1.07-.46.48-.94.94-1.41,1.41l217.1,165.77c5.41-7.54,34.45-30.56,37.27-38.12Z"/>
                <path class="o" d="M494.8,509.86l-182.65-195.97c-.83.59-1.69,1.17-2.55,1.73-.29.19-.58.37-.87.56-1.46.92-2.97,1.81-4.52,2.65-.27.15-.54.3-.82.44-.98.52-1.97,1.02-2.99,1.5-.64.31-1.3.61-1.96.9-.33.14-.67.29-1,.43l122.39,210.22c5.39-3.11,15.13-14.11,20.33-17.79,5.53-3.91,50.12-.65,54.64-4.66Z"/>
                <path class="o" d="M285.03,326.14c-.41.1-.82.19-1.24.28-.3.06-.61.13-.92.19-.72.15-1.45.29-2.19.42-.34.06-.7.12-1.05.17-.03,0-.06.01-.11.02-.35.05-.71.11-1.06.16-.37.06-.74.1-1.12.15-3.37.43-6.86.64-10.46.61l24.62,261.78c14.08-2.94,66.64-19.38,80.48-24.99l-86.95-238.78Z"/>
                <path class="o" d="M253.58,326.9c-.46-.08-.92-.16-1.38-.25-1.29-.25-2.56-.5-3.79-.77-.65-.14-1.3-.28-1.93-.43-2.17-.49-4.26-1.02-6.27-1.57-.54-.14-1.06-.29-1.58-.44-.49-.14-.97-.28-1.44-.42-.35-.11-.7-.22-1.05-.32-.54-.17-1.06-.33-1.58-.5l-101.04,268.14c15.95.97,73.93,1.07,91.49-.42l28.58-263.01Z"/>
                <path class="o" d="M221.71,317.09c-1.27-.61-2.49-1.24-3.67-1.89-.44-.24-.88-.49-1.3-.73-.58-.33-1.14-.66-1.69-1-.48-.29-.96-.59-1.42-.89-1.87-1.2-3.61-2.45-5.22-3.74-.27-.21-.53-.42-.79-.64-.22-.19-.45-.38-.68-.56-.03-.03-.06-.06-.1-.08L-10.22,517.47s.06.02.18.06l.17.06c.06.02.14.05.22.07l.61.21.83.27c.31.1.66.22,1.04.34,7.4,2.37,50.06,40.32,77.57,44.75l151.31-246.14Z"/>
              </g>
              <g class="u">
                <path class="o" d="M-80.66,384.02s17.37,19.91,17.37,19.91l262.98-104.06c-.06-.08-.13-.17-.19-.25-.19-.24-.37-.48-.55-.72-.22-.29-.43-.59-.65-.89-.27-.39-.53-.77-.79-1.16-.16-.25-.33-.49-.49-.75-.1-.14-.19-.29-.28-.44-.34-.54-.67-1.09-.99-1.64-.24-.41-.47-.82-.69-1.24-.16-.3-.33-.6-.49-.91l-295.15,81.97c5.44,6.98,19.48,9.73,19.91,10.17Z"/>
                <path class="o" d="M-99.3,296.34l289.02-18.43c-.14-.73-.27-1.45-.38-2.17-.11-.69-.2-1.38-.28-2.06-.04-.36-.08-.7-.11-1.06-.1-1.05-.17-2.1-.21-3.14l-318.52-13.38c2.25,5.26,27.92,35.64,30.5,40.24Z"/>
                <path class="o" d="M-78.12,195.12l268.27,59.27c.14-.58.28-1.16.43-1.72.07-.27.14-.52.21-.77.52-1.85,1.13-3.62,1.8-5.28L-89.56,154.45c0,5.61,10.53,35.31,11.44,40.66Z"/>
                <path class="o" d="M-46.35,96.85l246.33,136.85c.21-.29.43-.58.65-.87.22-.29.44-.58.67-.87.18-.23.37-.47.56-.71.25-.32.51-.63.77-.95l.09-.11c.75-.9,1.54-1.8,2.36-2.69.16-.18.32-.35.49-.53.34-.36.68-.71,1.02-1.07.46-.48.94-.94,1.41-1.41L-9.08,58.73c-5.41,7.54-34.45,30.56-37.27,38.12Z"/>
                <path class="o" d="M35.39,20.19l182.65,195.97c.83-.59,1.69-1.17,2.55-1.73.29-.19.58-.37.87-.56,1.46-.92,2.97-1.81,4.52-2.65.27-.15.54-.3.82-.44.98-.52,1.97-1.02,2.99-1.5.64-.31,1.3-.61,1.96-.9.33-.14.67-.29,1-.43L110.36-2.26c-5.39,3.11-15.13,14.11-20.33,17.79-5.53,3.91-50.12.65-54.64,4.66Z"/>
                <path class="o" d="M245.17,203.91c.41-.1.82-.19,1.24-.28.3-.06.61-.13.92-.19.72-.15,1.45-.29,2.19-.42.34-.06.7-.12,1.05-.17.03,0,.06-.01.11-.02.35-.05.71-.11,1.06-.16.37-.06.74-.1,1.12-.15,3.37-.43,6.86-.64,10.46-.61l-24.62-261.78c-14.08,2.94-66.64,19.38-80.48,24.99l86.95,238.78Z"/>
                <path class="o" d="M276.61,203.14c.46.08.92.16,1.38.25,1.29.25,2.56.5,3.79.77.65.14,1.3.28,1.93.43,2.17.49,4.26,1.02,6.27,1.57.54.14,1.06.29,1.58.44.49.14.97.28,1.44.42.35.11.7.22,1.05.32.54.17,1.06.33,1.58.5L396.68-60.29c-15.95-.97-73.93-1.07-91.49.42l-28.58,263.01Z"/>
                <path class="o" d="M308.49,212.96c1.27.61,2.49,1.24,3.67,1.89.44.24.88.49,1.3.73.58.33,1.14.66,1.69,1,.48.29.96.59,1.42.89,1.87,1.2,3.61,2.45,5.22,3.74.27.21.53.42.79.64.22.19.45.38.68.56.03.03.06.06.1.08L540.42,12.58s-.06-.02-.18-.06l-.17-.06c-.06-.02-.14-.05-.22-.07l-.61-.21-.83-.27c-.31-.1-.66-.22-1.04-.34-7.4-2.37-50.06-40.32-77.57-44.75l-151.31,246.14Z"/>
              </g>
            </g>
            <g class="s">
              <g>
                <path class="j" d="M158.77,316.18s.04.03.04.03l40.8-16.26c-.06-.08-.13-.17-.19-.25-.19-.24-.37-.48-.55-.72-.22-.29-.43-.59-.65-.89-.27-.39-.53-.77-.79-1.16-.16-.25-.33-.49-.49-.75-.1-.14-.19-.29-.28-.44-.34-.54-.67-1.09-.99-1.64-.24-.41-.47-.82-.69-1.24-.16-.3-.33-.6-.49-.91l-45.62,12.65c5.44,6.98,9.48,11.12,9.9,11.56Z"/>
                <path class="j" d="M133.6,281.68l56.03-3.68c-.14-.73-.27-1.45-.38-2.17-.11-.69-.2-1.38-.28-2.06-.04-.36-.08-.7-.11-1.06-.1-1.05-.17-2.1-.21-3.14l-62.36-2.7c2.25,5.26,4.74,10.22,7.32,14.81Z"/>
                <path class="j" d="M117.77,238.61l72.3,15.86c.14-.58.28-1.16.43-1.72.07-.27.14-.52.21-.77.52-1.85,1.13-3.62,1.8-5.28l-76.17-24.55c0,5.61.52,11.11,1.43,16.46Z"/>
                <path class="j" d="M121.93,190.79l77.96,43c.21-.29.43-.58.65-.87.22-.29.44-.58.67-.87.18-.23.37-.47.56-.71.25-.32.51-.63.77-.95l.09-.11c.75-.9,1.54-1.8,2.36-2.69.16-.18.32-.35.49-.53.34-.36.68-.71,1.02-1.07.46-.48.94-.94,1.41-1.41l-73.77-56.5c-5.41,7.54-9.41,15.14-12.23,22.7Z"/>
                <path class="j" d="M153.47,146.96l64.49,69.28c.83-.59,1.69-1.17,2.55-1.73.29-.19.58-.37.87-.56,1.46-.92,2.97-1.81,4.52-2.65.27-.15.54-.3.82-.44.98-.52,1.97-1.02,2.99-1.5.64-.31,1.3-.61,1.96-.9.33-.14.67-.29,1-.43l-48.26-83.14c-5.39,3.11-10.69,6.5-15.9,10.17-5.53,3.91-10.53,7.87-15.04,11.88Z"/>
                <path class="j" d="M245.08,204c.41-.1.82-.19,1.24-.28.3-.06.61-.13.92-.19.72-.15,1.45-.29,2.19-.42.34-.06.7-.12,1.05-.17.03,0,.06-.01.11-.02.35-.05.71-.11,1.06-.16.37-.06.74-.1,1.12-.15,3.37-.43,6.86-.64,10.46-.61l-9.76-102.95c-14.08,2.94-28.19,7.06-42.02,12.67l33.63,92.28Z"/>
                <path class="j" d="M276.53,203.23c.46.08.92.16,1.38.25,1.29.25,2.56.5,3.79.77.65.14,1.3.28,1.93.43,2.17.49,4.26,1.02,6.27,1.57.54.14,1.06.29,1.58.44.49.14.97.28,1.44.42.35.11.7.22,1.05.32.54.17,1.06.33,1.58.5l43.2-114.39c-15.95-.97-33.02-1.02-50.57.47l-11.66,109.2Z"/>
                <path class="j" d="M308.4,213.04c1.27.61,2.49,1.24,3.67,1.89.44.24.88.49,1.3.73.58.33,1.14.66,1.69,1,.48.29.96.59,1.42.89,1.87,1.2,3.61,2.45,5.22,3.74.27.21.53.42.79.64.22.19.45.38.68.56.03.03.06.06.1.08l113.99-110.7s-.06-.02-.18-.06l-.17-.06c-.06-.02-.14-.05-.22-.07l-.61-.21-.83-.27c-.31-.1-.66-.22-1.04-.34-7.4-2.37-27.66-8.4-55.17-12.83l-70.63,115.01Z"/>
              </g>
              <g>
                <path class="j" d="M371.34,213.96s-.04-.03-.04-.03l-40.8,16.26c.06.08.13.17.19.25.19.24.37.48.55.72.22.29.43.59.65.89.27.39.53.77.79,1.16.16.25.33.49.49.75.1.14.19.29.28.44.34.54.67,1.09.99,1.64.24.41.47.82.69,1.24.16.3.33.6.49.91l45.62-12.65c-5.44-6.98-9.48-11.12-9.9-11.56Z"/>
                <path class="j" d="M396.51,248.45l-56.03,3.68c.14.73.27,1.45.38,2.17.11.69.2,1.38.28,2.06.04.36.08.7.11,1.06.1,1.05.17,2.1.21,3.14l62.36,2.7c-2.25-5.26-4.74-10.22-7.32-14.81Z"/>
                <path class="j" d="M412.35,291.52l-72.3-15.86c-.14.58-.28,1.16-.43,1.72-.07.27-.14.52-.21.77-.52,1.85-1.13,3.62-1.8,5.28l76.17,24.55c0-5.61-.52-11.11-1.43-16.46Z"/>
                <path class="j" d="M408.18,339.35l-77.96-43c-.21.29-.43.58-.65.87-.22.29-.44.58-.67.87-.18.23-.37.47-.56.71-.25.32-.51.63-.77.95l-.09.11c-.75.9-1.54,1.8-2.36,2.69-.16.18-.32.35-.49.53-.34.36-.68.71-1.02,1.07-.46.48-.94.94-1.41,1.41l73.77,56.5c5.41-7.54,9.41-15.14,12.23-22.7Z"/>
                <path class="j" d="M376.65,383.17l-64.49-69.28c-.83.59-1.69,1.17-2.55,1.73-.29.19-.58.37-.87.56-1.46.92-2.97,1.81-4.52,2.65-.27.15-.54.3-.82.44-.98.52-1.97,1.02-2.99,1.5-.64.31-1.3.61-1.96.9-.33.14-.67.29-1,.43l48.26,83.14c5.39-3.11,10.69-6.5,15.9-10.17,5.53-3.91,10.53-7.87,15.04-11.88Z"/>
                <path class="j" d="M285.03,326.14c-.41.1-.82.19-1.24.28-.3.06-.61.13-.92.19-.72.15-1.45.29-2.19.42-.34.06-.7.12-1.05.17-.03,0-.06.01-.11.02-.35.05-.71.11-1.06.16-.37.06-.74.1-1.12.15-3.37.43-6.86.64-10.46.61l9.76,102.95c14.08-2.94,28.19-7.06,42.02-12.67l-33.63-92.28Z"/>
                <path class="j" d="M253.58,326.9c-.46-.08-.92-.16-1.38-.25-1.29-.25-2.56-.5-3.79-.77-.65-.14-1.3-.28-1.93-.43-2.17-.49-4.26-1.02-6.27-1.57-.54-.14-1.06-.29-1.58-.44-.49-.14-.97-.28-1.44-.42-.35-.11-.7-.22-1.05-.32-.54-.17-1.06-.33-1.58-.5l-43.2,114.39c15.95.97,33.02,1.02,50.57-.47l11.66-109.2Z"/>
                <path class="j" d="M221.71,317.09c-1.27-.61-2.49-1.24-3.67-1.89-.44-.24-.88-.49-1.3-.73-.58-.33-1.14-.66-1.69-1-.48-.29-.96-.59-1.42-.89-1.87-1.2-3.61-2.45-5.22-3.74-.27-.21-.53-.42-.79-.64-.22-.19-.45-.38-.68-.56-.03-.03-.06-.06-.1-.08l-113.99,110.7s.06.02.18.06l.17.06c.06.02.14.05.22.07l.61.21.83.27c.31.1.66.22,1.04.34,7.4,2.37,27.66,8.4,55.17,12.83l70.63-115.01Z"/>
              </g>
            </g>
          </g>
        </g>
        <g class="q">
          <g class="w">
            <g class="t">
              <g>
                <path class="j" d="M158.77,316.18s.04.03.04.03l40.8-16.26c-.06-.08-.13-.17-.19-.25-.19-.24-.37-.48-.55-.72-.22-.29-.43-.59-.65-.89-.27-.39-.53-.77-.79-1.16-.16-.25-.33-.49-.49-.75-.1-.14-.19-.29-.28-.44-.34-.54-.67-1.09-.99-1.64-.24-.41-.47-.82-.69-1.24-.16-.3-.33-.6-.49-.91l-45.62,12.65c5.44,6.98,9.48,11.12,9.9,11.56Z"/>
                <path class="j" d="M133.6,281.68l56.03-3.68c-.14-.73-.27-1.45-.38-2.17-.11-.69-.2-1.38-.28-2.06-.04-.36-.08-.7-.11-1.06-.1-1.05-.17-2.1-.21-3.14l-62.36-2.7c2.25,5.26,4.74,10.22,7.32,14.81Z"/>
                <path class="j" d="M117.77,238.61l72.3,15.86c.14-.58.28-1.16.43-1.72.07-.27.14-.52.21-.77.52-1.85,1.13-3.62,1.8-5.28l-76.17-24.55c0,5.61.52,11.11,1.43,16.46Z"/>
                <path class="j" d="M121.93,190.79l77.96,43c.21-.29.43-.58.65-.87.22-.29.44-.58.67-.87.18-.23.37-.47.56-.71.25-.32.51-.63.77-.95l.09-.11c.75-.9,1.54-1.8,2.36-2.69.16-.18.32-.35.49-.53.34-.36.68-.71,1.02-1.07.46-.48.94-.94,1.41-1.41l-73.77-56.5c-5.41,7.54-9.41,15.14-12.23,22.7Z"/>
                <path class="j" d="M153.47,146.96l64.49,69.28c.83-.59,1.69-1.17,2.55-1.73.29-.19.58-.37.87-.56,1.46-.92,2.97-1.81,4.52-2.65.27-.15.54-.3.82-.44.98-.52,1.97-1.02,2.99-1.5.64-.31,1.3-.61,1.96-.9.33-.14.67-.29,1-.43l-48.26-83.14c-5.39,3.11-10.69,6.5-15.9,10.17-5.53,3.91-10.53,7.87-15.04,11.88Z"/>
                <path class="j" d="M245.08,204c.41-.1.82-.19,1.24-.28.3-.06.61-.13.92-.19.72-.15,1.45-.29,2.19-.42.34-.06.7-.12,1.05-.17.03,0,.06-.01.11-.02.35-.05.71-.11,1.06-.16.37-.06.74-.1,1.12-.15,3.37-.43,6.86-.64,10.46-.61l-9.76-102.95c-14.08,2.94-28.19,7.06-42.02,12.67l33.63,92.28Z"/>
                <path class="j" d="M276.53,203.23c.46.08.92.16,1.38.25,1.29.25,2.56.5,3.79.77.65.14,1.3.28,1.93.43,2.17.49,4.26,1.02,6.27,1.57.54.14,1.06.29,1.58.44.49.14.97.28,1.44.42.35.11.7.22,1.05.32.54.17,1.06.33,1.58.5l43.2-114.39c-15.95-.97-33.02-1.02-50.57.47l-11.66,109.2Z"/>
                <path class="j" d="M308.4,213.04c1.27.61,2.49,1.24,3.67,1.89.44.24.88.49,1.3.73.58.33,1.14.66,1.69,1,.48.29.96.59,1.42.89,1.87,1.2,3.61,2.45,5.22,3.74.27.21.53.42.79.64.22.19.45.38.68.56.03.03.06.06.1.08l113.99-110.7s-.06-.02-.18-.06l-.17-.06c-.06-.02-.14-.05-.22-.07l-.61-.21-.83-.27c-.31-.1-.66-.22-1.04-.34-7.4-2.37-27.66-8.4-55.17-12.83l-70.63,115.01Z"/>
              </g>
              <g class="u">
                <path class="o" d="M610.86,146.03s-17.37-19.91-17.37-19.91l-262.98,104.06c.06.08.13.17.19.25.19.24.37.48.55.72.22.29.43.59.65.89.27.39.53.77.79,1.16.16.25.33.49.49.75.1.14.19.29.28.44.34.54.67,1.09.99,1.64.24.41.47.82.69,1.24.16.3.33.6.49.91l295.15-81.97c-5.44-6.98-19.48-9.73-19.91-10.17Z"/>
                <path class="o" d="M629.49,233.7l-289.02,18.43c.14.73.27,1.45.38,2.17.11.69.2,1.38.28,2.06.04.36.08.7.11,1.06.1,1.05.17,2.1.21,3.14l318.52,13.38c-2.25-5.26-27.92-35.64-30.5-40.24Z"/>
                <path class="o" d="M608.32,334.93l-268.27-59.27c-.14.58-.28,1.16-.43,1.72-.07.27-.14.52-.21.77-.52,1.85-1.13,3.62-1.8,5.28l282.15,92.15c0-5.61-10.53-35.31-11.44-40.66Z"/>
                <path class="o" d="M576.55,433.2l-246.33-136.85c-.21.29-.43.58-.65.87-.22.29-.44.58-.67.87-.18.23-.37.47-.56.71-.25.32-.51.63-.77.95l-.09.11c-.75.9-1.54,1.8-2.36,2.69-.16.18-.32.35-.49.53-.34.36-.68.71-1.02,1.07-.46.48-.94.94-1.41,1.41l217.1,165.77c5.41-7.54,34.45-30.56,37.27-38.12Z"/>
                <path class="o" d="M494.8,509.86l-182.65-195.97c-.83.59-1.69,1.17-2.55,1.73-.29.19-.58.37-.87.56-1.46.92-2.97,1.81-4.52,2.65-.27.15-.54.3-.82.44-.98.52-1.97,1.02-2.99,1.5-.64.31-1.3.61-1.96.9-.33.14-.67.29-1,.43l122.39,210.22c5.39-3.11,15.13-14.11,20.33-17.79,5.53-3.91,50.12-.65,54.64-4.66Z"/>
                <path class="o" d="M285.03,326.14c-.41.1-.82.19-1.24.28-.3.06-.61.13-.92.19-.72.15-1.45.29-2.19.42-.34.06-.7.12-1.05.17-.03,0-.06.01-.11.02-.35.05-.71.11-1.06.16-.37.06-.74.1-1.12.15-3.37.43-6.86.64-10.46.61l24.62,261.78c14.08-2.94,66.64-19.38,80.48-24.99l-86.95-238.78Z"/>
                <path class="o" d="M253.58,326.9c-.46-.08-.92-.16-1.38-.25-1.29-.25-2.56-.5-3.79-.77-.65-.14-1.3-.28-1.93-.43-2.17-.49-4.26-1.02-6.27-1.57-.54-.14-1.06-.29-1.58-.44-.49-.14-.97-.28-1.44-.42-.35-.11-.7-.22-1.05-.32-.54-.17-1.06-.33-1.58-.5l-101.04,268.14c15.95.97,73.93,1.07,91.49-.42l28.58-263.01Z"/>
                <path class="o" d="M221.71,317.09c-1.27-.61-2.49-1.24-3.67-1.89-.44-.24-.88-.49-1.3-.73-.58-.33-1.14-.66-1.69-1-.48-.29-.96-.59-1.42-.89-1.87-1.2-3.61-2.45-5.22-3.74-.27-.21-.53-.42-.79-.64-.22-.19-.45-.38-.68-.56-.03-.03-.06-.06-.1-.08L-10.22,517.47s.06.02.18.06l.17.06c.06.02.14.05.22.07l.61.21.83.27c.31.1.66.22,1.04.34,7.4,2.37,50.06,40.32,77.57,44.75l151.31-246.14Z"/>
              </g>
              <g class="u">
                <path class="o" d="M-80.66,384.02s17.37,19.91,17.37,19.91l262.98-104.06c-.06-.08-.13-.17-.19-.25-.19-.24-.37-.48-.55-.72-.22-.29-.43-.59-.65-.89-.27-.39-.53-.77-.79-1.16-.16-.25-.33-.49-.49-.75-.1-.14-.19-.29-.28-.44-.34-.54-.67-1.09-.99-1.64-.24-.41-.47-.82-.69-1.24-.16-.3-.33-.6-.49-.91l-295.15,81.97c5.44,6.98,19.48,9.73,19.91,10.17Z"/>
                <path class="o" d="M-99.3,296.34l289.02-18.43c-.14-.73-.27-1.45-.38-2.17-.11-.69-.2-1.38-.28-2.06-.04-.36-.08-.7-.11-1.06-.1-1.05-.17-2.1-.21-3.14l-318.52-13.38c2.25,5.26,27.92,35.64,30.5,40.24Z"/>
                <path class="o" d="M-78.12,195.12l268.27,59.27c.14-.58.28-1.16.43-1.72.07-.27.14-.52.21-.77.52-1.85,1.13-3.62,1.8-5.28L-89.56,154.45c0,5.61,10.53,35.31,11.44,40.66Z"/>
                <path class="o" d="M-46.35,96.85l246.33,136.85c.21-.29.43-.58.65-.87.22-.29.44-.58.67-.87.18-.23.37-.47.56-.71.25-.32.51-.63.77-.95l.09-.11c.75-.9,1.54-1.8,2.36-2.69.16-.18.32-.35.49-.53.34-.36.68-.71,1.02-1.07.46-.48.94-.94,1.41-1.41L-9.08,58.73c-5.41,7.54-34.45,30.56-37.27,38.12Z"/>
                <path class="o" d="M35.39,20.19l182.65,195.97c.83-.59,1.69-1.17,2.55-1.73.29-.19.58-.37.87-.56,1.46-.92,2.97-1.81,4.52-2.65.27-.15.54-.3.82-.44.98-.52,1.97-1.02,2.99-1.5.64-.31,1.3-.61,1.96-.9.33-.14.67-.29,1-.43L110.36-2.26c-5.39,3.11-15.13,14.11-20.33,17.79-5.53,3.91-50.12.65-54.64,4.66Z"/>
                <path class="o" d="M245.17,203.91c.41-.1.82-.19,1.24-.28.3-.06.61-.13.92-.19.72-.15,1.45-.29,2.19-.42.34-.06.7-.12,1.05-.17.03,0,.06-.01.11-.02.35-.05.71-.11,1.06-.16.37-.06.74-.1,1.12-.15,3.37-.43,6.86-.64,10.46-.61l-24.62-261.78c-14.08,2.94-66.64,19.38-80.48,24.99l86.95,238.78Z"/>
                <path class="o" d="M276.61,203.14c.46.08.92.16,1.38.25,1.29.25,2.56.5,3.79.77.65.14,1.3.28,1.93.43,2.17.49,4.26,1.02,6.27,1.57.54.14,1.06.29,1.58.44.49.14.97.28,1.44.42.35.11.7.22,1.05.32.54.17,1.06.33,1.58.5L396.68-60.29c-15.95-.97-73.93-1.07-91.49.42l-28.58,263.01Z"/>
                <path class="o" d="M308.49,212.96c1.27.61,2.49,1.24,3.67,1.89.44.24.88.49,1.3.73.58.33,1.14.66,1.69,1,.48.29.96.59,1.42.89,1.87,1.2,3.61,2.45,5.22,3.74.27.21.53.42.79.64.22.19.45.38.68.56.03.03.06.06.1.08L540.42,12.58s-.06-.02-.18-.06l-.17-.06c-.06-.02-.14-.05-.22-.07l-.61-.21-.83-.27c-.31-.1-.66-.22-1.04-.34-7.4-2.37-50.06-40.32-77.57-44.75l-151.31,246.14Z"/>
              </g>
            </g>
            <g class="s">
              <g>
                <path class="j" d="M158.77,316.18s.04.03.04.03l40.8-16.26c-.06-.08-.13-.17-.19-.25-.19-.24-.37-.48-.55-.72-.22-.29-.43-.59-.65-.89-.27-.39-.53-.77-.79-1.16-.16-.25-.33-.49-.49-.75-.1-.14-.19-.29-.28-.44-.34-.54-.67-1.09-.99-1.64-.24-.41-.47-.82-.69-1.24-.16-.3-.33-.6-.49-.91l-45.62,12.65c5.44,6.98,9.48,11.12,9.9,11.56Z"/>
                <path class="j" d="M133.6,281.68l56.03-3.68c-.14-.73-.27-1.45-.38-2.17-.11-.69-.2-1.38-.28-2.06-.04-.36-.08-.7-.11-1.06-.1-1.05-.17-2.1-.21-3.14l-62.36-2.7c2.25,5.26,4.74,10.22,7.32,14.81Z"/>
                <path class="j" d="M117.77,238.61l72.3,15.86c.14-.58.28-1.16.43-1.72.07-.27.14-.52.21-.77.52-1.85,1.13-3.62,1.8-5.28l-76.17-24.55c0,5.61.52,11.11,1.43,16.46Z"/>
                <path class="j" d="M121.93,190.79l77.96,43c.21-.29.43-.58.65-.87.22-.29.44-.58.67-.87.18-.23.37-.47.56-.71.25-.32.51-.63.77-.95l.09-.11c.75-.9,1.54-1.8,2.36-2.69.16-.18.32-.35.49-.53.34-.36.68-.71,1.02-1.07.46-.48.94-.94,1.41-1.41l-73.77-56.5c-5.41,7.54-9.41,15.14-12.23,22.7Z"/>
                <path class="j" d="M153.47,146.96l64.49,69.28c.83-.59,1.69-1.17,2.55-1.73.29-.19.58-.37.87-.56,1.46-.92,2.97-1.81,4.52-2.65.27-.15.54-.3.82-.44.98-.52,1.97-1.02,2.99-1.5.64-.31,1.3-.61,1.96-.9.33-.14.67-.29,1-.43l-48.26-83.14c-5.39,3.11-10.69,6.5-15.9,10.17-5.53,3.91-10.53,7.87-15.04,11.88Z"/>
                <path class="j" d="M245.08,204c.41-.1.82-.19,1.24-.28.3-.06.61-.13.92-.19.72-.15,1.45-.29,2.19-.42.34-.06.7-.12,1.05-.17.03,0,.06-.01.11-.02.35-.05.71-.11,1.06-.16.37-.06.74-.1,1.12-.15,3.37-.43,6.86-.64,10.46-.61l-9.76-102.95c-14.08,2.94-28.19,7.06-42.02,12.67l33.63,92.28Z"/>
                <path class="j" d="M276.53,203.23c.46.08.92.16,1.38.25,1.29.25,2.56.5,3.79.77.65.14,1.3.28,1.93.43,2.17.49,4.26,1.02,6.27,1.57.54.14,1.06.29,1.58.44.49.14.97.28,1.44.42.35.11.7.22,1.05.32.54.17,1.06.33,1.58.5l43.2-114.39c-15.95-.97-33.02-1.02-50.57.47l-11.66,109.2Z"/>
                <path class="j" d="M308.4,213.04c1.27.61,2.49,1.24,3.67,1.89.44.24.88.49,1.3.73.58.33,1.14.66,1.69,1,.48.29.96.59,1.42.89,1.87,1.2,3.61,2.45,5.22,3.74.27.21.53.42.79.64.22.19.45.38.68.56.03.03.06.06.1.08l113.99-110.7s-.06-.02-.18-.06l-.17-.06c-.06-.02-.14-.05-.22-.07l-.61-.21-.83-.27c-.31-.1-.66-.22-1.04-.34-7.4-2.37-27.66-8.4-55.17-12.83l-70.63,115.01Z"/>
              </g>
              <g>
                <path class="j" d="M371.34,213.96s-.04-.03-.04-.03l-40.8,16.26c.06.08.13.17.19.25.19.24.37.48.55.72.22.29.43.59.65.89.27.39.53.77.79,1.16.16.25.33.49.49.75.1.14.19.29.28.44.34.54.67,1.09.99,1.64.24.41.47.82.69,1.24.16.3.33.6.49.91l45.62-12.65c-5.44-6.98-9.48-11.12-9.9-11.56Z"/>
                <path class="j" d="M396.51,248.45l-56.03,3.68c.14.73.27,1.45.38,2.17.11.69.2,1.38.28,2.06.04.36.08.7.11,1.06.1,1.05.17,2.1.21,3.14l62.36,2.7c-2.25-5.26-4.74-10.22-7.32-14.81Z"/>
                <path class="j" d="M412.35,291.52l-72.3-15.86c-.14.58-.28,1.16-.43,1.72-.07.27-.14.52-.21.77-.52,1.85-1.13,3.62-1.8,5.28l76.17,24.55c0-5.61-.52-11.11-1.43-16.46Z"/>
                <path class="j" d="M408.18,339.35l-77.96-43c-.21.29-.43.58-.65.87-.22.29-.44.58-.67.87-.18.23-.37.47-.56.71-.25.32-.51.63-.77.95l-.09.11c-.75.9-1.54,1.8-2.36,2.69-.16.18-.32.35-.49.53-.34.36-.68.71-1.02,1.07-.46.48-.94.94-1.41,1.41l73.77,56.5c5.41-7.54,9.41-15.14,12.23-22.7Z"/>
                <path class="j" d="M376.65,383.17l-64.49-69.28c-.83.59-1.69,1.17-2.55,1.73-.29.19-.58.37-.87.56-1.46.92-2.97,1.81-4.52,2.65-.27.15-.54.3-.82.44-.98.52-1.97,1.02-2.99,1.5-.64.31-1.3.61-1.96.9-.33.14-.67.29-1,.43l48.26,83.14c5.39-3.11,10.69-6.5,15.9-10.17,5.53-3.91,10.53-7.87,15.04-11.88Z"/>
                <path class="j" d="M285.03,326.14c-.41.1-.82.19-1.24.28-.3.06-.61.13-.92.19-.72.15-1.45.29-2.19.42-.34.06-.7.12-1.05.17-.03,0-.06.01-.11.02-.35.05-.71.11-1.06.16-.37.06-.74.1-1.12.15-3.37.43-6.86.64-10.46.61l9.76,102.95c14.08-2.94,28.19-7.06,42.02-12.67l-33.63-92.28Z"/>
                <path class="j" d="M253.58,326.9c-.46-.08-.92-.16-1.38-.25-1.29-.25-2.56-.5-3.79-.77-.65-.14-1.3-.28-1.93-.43-2.17-.49-4.26-1.02-6.27-1.57-.54-.14-1.06-.29-1.58-.44-.49-.14-.97-.28-1.44-.42-.35-.11-.7-.22-1.05-.32-.54-.17-1.06-.33-1.58-.5l-43.2,114.39c15.95.97,33.02,1.02,50.57-.47l11.66-109.2Z"/>
                <path class="j" d="M221.71,317.09c-1.27-.61-2.49-1.24-3.67-1.89-.44-.24-.88-.49-1.3-.73-.58-.33-1.14-.66-1.69-1-.48-.29-.96-.59-1.42-.89-1.87-1.2-3.61-2.45-5.22-3.74-.27-.21-.53-.42-.79-.64-.22-.19-.45-.38-.68-.56-.03-.03-.06-.06-.1-.08l-113.99,110.7s.06.02.18.06l.17.06c.06.02.14.05.22.07l.61.21.83.27c.31.1.66.22,1.04.34,7.4,2.37,27.66,8.4,55.17,12.83l70.63-115.01Z"/>
              </g>
            </g>
          </g>
        </g>
        <g class="q">
          <g class="y">
            <g class="t">
              <g>
                <path class="j" d="M158.77,316.18s.04.03.04.03l40.8-16.26c-.06-.08-.13-.17-.19-.25-.19-.24-.37-.48-.55-.72-.22-.29-.43-.59-.65-.89-.27-.39-.53-.77-.79-1.16-.16-.25-.33-.49-.49-.75-.1-.14-.19-.29-.28-.44-.34-.54-.67-1.09-.99-1.64-.24-.41-.47-.82-.69-1.24-.16-.3-.33-.6-.49-.91l-45.62,12.65c5.44,6.98,9.48,11.12,9.9,11.56Z"/>
                <path class="j" d="M133.6,281.68l56.03-3.68c-.14-.73-.27-1.45-.38-2.17-.11-.69-.2-1.38-.28-2.06-.04-.36-.08-.7-.11-1.06-.1-1.05-.17-2.1-.21-3.14l-62.36-2.7c2.25,5.26,4.74,10.22,7.32,14.81Z"/>
                <path class="j" d="M117.77,238.61l72.3,15.86c.14-.58.28-1.16.43-1.72.07-.27.14-.52.21-.77.52-1.85,1.13-3.62,1.8-5.28l-76.17-24.55c0,5.61.52,11.11,1.43,16.46Z"/>
                <path class="j" d="M121.93,190.79l77.96,43c.21-.29.43-.58.65-.87.22-.29.44-.58.67-.87.18-.23.37-.47.56-.71.25-.32.51-.63.77-.95l.09-.11c.75-.9,1.54-1.8,2.36-2.69.16-.18.32-.35.49-.53.34-.36.68-.71,1.02-1.07.46-.48.94-.94,1.41-1.41l-73.77-56.5c-5.41,7.54-9.41,15.14-12.23,22.7Z"/>
                <path class="j" d="M153.47,146.96l64.49,69.28c.83-.59,1.69-1.17,2.55-1.73.29-.19.58-.37.87-.56,1.46-.92,2.97-1.81,4.52-2.65.27-.15.54-.3.82-.44.98-.52,1.97-1.02,2.99-1.5.64-.31,1.3-.61,1.96-.9.33-.14.67-.29,1-.43l-48.26-83.14c-5.39,3.11-10.69,6.5-15.9,10.17-5.53,3.91-10.53,7.87-15.04,11.88Z"/>
                <path class="j" d="M245.08,204c.41-.1.82-.19,1.24-.28.3-.06.61-.13.92-.19.72-.15,1.45-.29,2.19-.42.34-.06.7-.12,1.05-.17.03,0,.06-.01.11-.02.35-.05.71-.11,1.06-.16.37-.06.74-.1,1.12-.15,3.37-.43,6.86-.64,10.46-.61l-9.76-102.95c-14.08,2.94-28.19,7.06-42.02,12.67l33.63,92.28Z"/>
                <path class="j" d="M276.53,203.23c.46.08.92.16,1.38.25,1.29.25,2.56.5,3.79.77.65.14,1.3.28,1.93.43,2.17.49,4.26,1.02,6.27,1.57.54.14,1.06.29,1.58.44.49.14.97.28,1.44.42.35.11.7.22,1.05.32.54.17,1.06.33,1.58.5l43.2-114.39c-15.95-.97-33.02-1.02-50.57.47l-11.66,109.2Z"/>
                <path class="j" d="M308.4,213.04c1.27.61,2.49,1.24,3.67,1.89.44.24.88.49,1.3.73.58.33,1.14.66,1.69,1,.48.29.96.59,1.42.89,1.87,1.2,3.61,2.45,5.22,3.74.27.21.53.42.79.64.22.19.45.38.68.56.03.03.06.06.1.08l113.99-110.7s-.06-.02-.18-.06l-.17-.06c-.06-.02-.14-.05-.22-.07l-.61-.21-.83-.27c-.31-.1-.66-.22-1.04-.34-7.4-2.37-27.66-8.4-55.17-12.83l-70.63,115.01Z"/>
              </g>
              <g class="u">
                <path class="o" d="M610.86,146.03s-17.37-19.91-17.37-19.91l-262.98,104.06c.06.08.13.17.19.25.19.24.37.48.55.72.22.29.43.59.65.89.27.39.53.77.79,1.16.16.25.33.49.49.75.1.14.19.29.28.44.34.54.67,1.09.99,1.64.24.41.47.82.69,1.24.16.3.33.6.49.91l295.15-81.97c-5.44-6.98-19.48-9.73-19.91-10.17Z"/>
                <path class="o" d="M629.49,233.7l-289.02,18.43c.14.73.27,1.45.38,2.17.11.69.2,1.38.28,2.06.04.36.08.7.11,1.06.1,1.05.17,2.1.21,3.14l318.52,13.38c-2.25-5.26-27.92-35.64-30.5-40.24Z"/>
                <path class="o" d="M608.32,334.93l-268.27-59.27c-.14.58-.28,1.16-.43,1.72-.07.27-.14.52-.21.77-.52,1.85-1.13,3.62-1.8,5.28l282.15,92.15c0-5.61-10.53-35.31-11.44-40.66Z"/>
                <path class="o" d="M576.55,433.2l-246.33-136.85c-.21.29-.43.58-.65.87-.22.29-.44.58-.67.87-.18.23-.37.47-.56.71-.25.32-.51.63-.77.95l-.09.11c-.75.9-1.54,1.8-2.36,2.69-.16.18-.32.35-.49.53-.34.36-.68.71-1.02,1.07-.46.48-.94.94-1.41,1.41l217.1,165.77c5.41-7.54,34.45-30.56,37.27-38.12Z"/>
                <path class="o" d="M494.8,509.86l-182.65-195.97c-.83.59-1.69,1.17-2.55,1.73-.29.19-.58.37-.87.56-1.46.92-2.97,1.81-4.52,2.65-.27.15-.54.3-.82.44-.98.52-1.97,1.02-2.99,1.5-.64.31-1.3.61-1.96.9-.33.14-.67.29-1,.43l122.39,210.22c5.39-3.11,15.13-14.11,20.33-17.79,5.53-3.91,50.12-.65,54.64-4.66Z"/>
                <path class="o" d="M285.03,326.14c-.41.1-.82.19-1.24.28-.3.06-.61.13-.92.19-.72.15-1.45.29-2.19.42-.34.06-.7.12-1.05.17-.03,0-.06.01-.11.02-.35.05-.71.11-1.06.16-.37.06-.74.1-1.12.15-3.37.43-6.86.64-10.46.61l24.62,261.78c14.08-2.94,66.64-19.38,80.48-24.99l-86.95-238.78Z"/>
                <path class="o" d="M253.58,326.9c-.46-.08-.92-.16-1.38-.25-1.29-.25-2.56-.5-3.79-.77-.65-.14-1.3-.28-1.93-.43-2.17-.49-4.26-1.02-6.27-1.57-.54-.14-1.06-.29-1.58-.44-.49-.14-.97-.28-1.44-.42-.35-.11-.7-.22-1.05-.32-.54-.17-1.06-.33-1.58-.5l-101.04,268.14c15.95.97,73.93,1.07,91.49-.42l28.58-263.01Z"/>
                <path class="o" d="M221.71,317.09c-1.27-.61-2.49-1.24-3.67-1.89-.44-.24-.88-.49-1.3-.73-.58-.33-1.14-.66-1.69-1-.48-.29-.96-.59-1.42-.89-1.87-1.2-3.61-2.45-5.22-3.74-.27-.21-.53-.42-.79-.64-.22-.19-.45-.38-.68-.56-.03-.03-.06-.06-.1-.08L-10.22,517.47s.06.02.18.06l.17.06c.06.02.14.05.22.07l.61.21.83.27c.31.1.66.22,1.04.34,7.4,2.37,50.06,40.32,77.57,44.75l151.31-246.14Z"/>
              </g>
              <g class="u">
                <path class="o" d="M-80.66,384.02s17.37,19.91,17.37,19.91l262.98-104.06c-.06-.08-.13-.17-.19-.25-.19-.24-.37-.48-.55-.72-.22-.29-.43-.59-.65-.89-.27-.39-.53-.77-.79-1.16-.16-.25-.33-.49-.49-.75-.1-.14-.19-.29-.28-.44-.34-.54-.67-1.09-.99-1.64-.24-.41-.47-.82-.69-1.24-.16-.3-.33-.6-.49-.91l-295.15,81.97c5.44,6.98,19.48,9.73,19.91,10.17Z"/>
                <path class="o" d="M-99.3,296.34l289.02-18.43c-.14-.73-.27-1.45-.38-2.17-.11-.69-.2-1.38-.28-2.06-.04-.36-.08-.7-.11-1.06-.1-1.05-.17-2.1-.21-3.14l-318.52-13.38c2.25,5.26,27.92,35.64,30.5,40.24Z"/>
                <path class="o" d="M-78.12,195.12l268.27,59.27c.14-.58.28-1.16.43-1.72.07-.27.14-.52.21-.77.52-1.85,1.13-3.62,1.8-5.28L-89.56,154.45c0,5.61,10.53,35.31,11.44,40.66Z"/>
                <path class="o" d="M-46.35,96.85l246.33,136.85c.21-.29.43-.58.65-.87.22-.29.44-.58.67-.87.18-.23.37-.47.56-.71.25-.32.51-.63.77-.95l.09-.11c.75-.9,1.54-1.8,2.36-2.69.16-.18.32-.35.49-.53.34-.36.68-.71,1.02-1.07.46-.48.94-.94,1.41-1.41L-9.08,58.73c-5.41,7.54-34.45,30.56-37.27,38.12Z"/>
                <path class="o" d="M35.39,20.19l182.65,195.97c.83-.59,1.69-1.17,2.55-1.73.29-.19.58-.37.87-.56,1.46-.92,2.97-1.81,4.52-2.65.27-.15.54-.3.82-.44.98-.52,1.97-1.02,2.99-1.5.64-.31,1.3-.61,1.96-.9.33-.14.67-.29,1-.43L110.36-2.26c-5.39,3.11-15.13,14.11-20.33,17.79-5.53,3.91-50.12.65-54.64,4.66Z"/>
                <path class="o" d="M245.17,203.91c.41-.1.82-.19,1.24-.28.3-.06.61-.13.92-.19.72-.15,1.45-.29,2.19-.42.34-.06.7-.12,1.05-.17.03,0,.06-.01.11-.02.35-.05.71-.11,1.06-.16.37-.06.74-.1,1.12-.15,3.37-.43,6.86-.64,10.46-.61l-24.62-261.78c-14.08,2.94-66.64,19.38-80.48,24.99l86.95,238.78Z"/>
                <path class="o" d="M276.61,203.14c.46.08.92.16,1.38.25,1.29.25,2.56.5,3.79.77.65.14,1.3.28,1.93.43,2.17.49,4.26,1.02,6.27,1.57.54.14,1.06.29,1.58.44.49.14.97.28,1.44.42.35.11.7.22,1.05.32.54.17,1.06.33,1.58.5L396.68-60.29c-15.95-.97-73.93-1.07-91.49.42l-28.58,263.01Z"/>
                <path class="o" d="M308.49,212.96c1.27.61,2.49,1.24,3.67,1.89.44.24.88.49,1.3.73.58.33,1.14.66,1.69,1,.48.29.96.59,1.42.89,1.87,1.2,3.61,2.45,5.22,3.74.27.21.53.42.79.64.22.19.45.38.68.56.03.03.06.06.1.08L540.42,12.58s-.06-.02-.18-.06l-.17-.06c-.06-.02-.14-.05-.22-.07l-.61-.21-.83-.27c-.31-.1-.66-.22-1.04-.34-7.4-2.37-50.06-40.32-77.57-44.75l-151.31,246.14Z"/>
              </g>
            </g>
            <g class="s">
              <g>
                <path class="j" d="M158.77,316.18s.04.03.04.03l40.8-16.26c-.06-.08-.13-.17-.19-.25-.19-.24-.37-.48-.55-.72-.22-.29-.43-.59-.65-.89-.27-.39-.53-.77-.79-1.16-.16-.25-.33-.49-.49-.75-.1-.14-.19-.29-.28-.44-.34-.54-.67-1.09-.99-1.64-.24-.41-.47-.82-.69-1.24-.16-.3-.33-.6-.49-.91l-45.62,12.65c5.44,6.98,9.48,11.12,9.9,11.56Z"/>
                <path class="j" d="M133.6,281.68l56.03-3.68c-.14-.73-.27-1.45-.38-2.17-.11-.69-.2-1.38-.28-2.06-.04-.36-.08-.7-.11-1.06-.1-1.05-.17-2.1-.21-3.14l-62.36-2.7c2.25,5.26,4.74,10.22,7.32,14.81Z"/>
                <path class="j" d="M117.77,238.61l72.3,15.86c.14-.58.28-1.16.43-1.72.07-.27.14-.52.21-.77.52-1.85,1.13-3.62,1.8-5.28l-76.17-24.55c0,5.61.52,11.11,1.43,16.46Z"/>
                <path class="j" d="M121.93,190.79l77.96,43c.21-.29.43-.58.65-.87.22-.29.44-.58.67-.87.18-.23.37-.47.56-.71.25-.32.51-.63.77-.95l.09-.11c.75-.9,1.54-1.8,2.36-2.69.16-.18.32-.35.49-.53.34-.36.68-.71,1.02-1.07.46-.48.94-.94,1.41-1.41l-73.77-56.5c-5.41,7.54-9.41,15.14-12.23,22.7Z"/>
                <path class="j" d="M153.47,146.96l64.49,69.28c.83-.59,1.69-1.17,2.55-1.73.29-.19.58-.37.87-.56,1.46-.92,2.97-1.81,4.52-2.65.27-.15.54-.3.82-.44.98-.52,1.97-1.02,2.99-1.5.64-.31,1.3-.61,1.96-.9.33-.14.67-.29,1-.43l-48.26-83.14c-5.39,3.11-10.69,6.5-15.9,10.17-5.53,3.91-10.53,7.87-15.04,11.88Z"/>
                <path class="j" d="M245.08,204c.41-.1.82-.19,1.24-.28.3-.06.61-.13.92-.19.72-.15,1.45-.29,2.19-.42.34-.06.7-.12,1.05-.17.03,0,.06-.01.11-.02.35-.05.71-.11,1.06-.16.37-.06.74-.1,1.12-.15,3.37-.43,6.86-.64,10.46-.61l-9.76-102.95c-14.08,2.94-28.19,7.06-42.02,12.67l33.63,92.28Z"/>
                <path class="j" d="M276.53,203.23c.46.08.92.16,1.38.25,1.29.25,2.56.5,3.79.77.65.14,1.3.28,1.93.43,2.17.49,4.26,1.02,6.27,1.57.54.14,1.06.29,1.58.44.49.14.97.28,1.44.42.35.11.7.22,1.05.32.54.17,1.06.33,1.58.5l43.2-114.39c-15.95-.97-33.02-1.02-50.57.47l-11.66,109.2Z"/>
                <path class="j" d="M308.4,213.04c1.27.61,2.49,1.24,3.67,1.89.44.24.88.49,1.3.73.58.33,1.14.66,1.69,1,.48.29.96.59,1.42.89,1.87,1.2,3.61,2.45,5.22,3.74.27.21.53.42.79.64.22.19.45.38.68.56.03.03.06.06.1.08l113.99-110.7s-.06-.02-.18-.06l-.17-.06c-.06-.02-.14-.05-.22-.07l-.61-.21-.83-.27c-.31-.1-.66-.22-1.04-.34-7.4-2.37-27.66-8.4-55.17-12.83l-70.63,115.01Z"/>
              </g>
              <g>
                <path class="j" d="M371.34,213.96s-.04-.03-.04-.03l-40.8,16.26c.06.08.13.17.19.25.19.24.37.48.55.72.22.29.43.59.65.89.27.39.53.77.79,1.16.16.25.33.49.49.75.1.14.19.29.28.44.34.54.67,1.09.99,1.64.24.41.47.82.69,1.24.16.3.33.6.49.91l45.62-12.65c-5.44-6.98-9.48-11.12-9.9-11.56Z"/>
                <path class="j" d="M396.51,248.45l-56.03,3.68c.14.73.27,1.45.38,2.17.11.69.2,1.38.28,2.06.04.36.08.7.11,1.06.1,1.05.17,2.1.21,3.14l62.36,2.7c-2.25-5.26-4.74-10.22-7.32-14.81Z"/>
                <path class="j" d="M412.35,291.52l-72.3-15.86c-.14.58-.28,1.16-.43,1.72-.07.27-.14.52-.21.77-.52,1.85-1.13,3.62-1.8,5.28l76.17,24.55c0-5.61-.52-11.11-1.43-16.46Z"/>
                <path class="j" d="M408.18,339.35l-77.96-43c-.21.29-.43.58-.65.87-.22.29-.44.58-.67.87-.18.23-.37.47-.56.71-.25.32-.51.63-.77.95l-.09.11c-.75.9-1.54,1.8-2.36,2.69-.16.18-.32.35-.49.53-.34.36-.68.71-1.02,1.07-.46.48-.94.94-1.41,1.41l73.77,56.5c5.41-7.54,9.41-15.14,12.23-22.7Z"/>
                <path class="j" d="M376.65,383.17l-64.49-69.28c-.83.59-1.69,1.17-2.55,1.73-.29.19-.58.37-.87.56-1.46.92-2.97,1.81-4.52,2.65-.27.15-.54.3-.82.44-.98.52-1.97,1.02-2.99,1.5-.64.31-1.3.61-1.96.9-.33.14-.67.29-1,.43l48.26,83.14c5.39-3.11,10.69-6.5,15.9-10.17,5.53-3.91,10.53-7.87,15.04-11.88Z"/>
                <path class="j" d="M285.03,326.14c-.41.1-.82.19-1.24.28-.3.06-.61.13-.92.19-.72.15-1.45.29-2.19.42-.34.06-.7.12-1.05.17-.03,0-.06.01-.11.02-.35.05-.71.11-1.06.16-.37.06-.74.1-1.12.15-3.37.43-6.86.64-10.46.61l9.76,102.95c14.08-2.94,28.19-7.06,42.02-12.67l-33.63-92.28Z"/>
                <path class="j" d="M253.58,326.9c-.46-.08-.92-.16-1.38-.25-1.29-.25-2.56-.5-3.79-.77-.65-.14-1.3-.28-1.93-.43-2.17-.49-4.26-1.02-6.27-1.57-.54-.14-1.06-.29-1.58-.44-.49-.14-.97-.28-1.44-.42-.35-.11-.7-.22-1.05-.32-.54-.17-1.06-.33-1.58-.5l-43.2,114.39c15.95.97,33.02,1.02,50.57-.47l11.66-109.2Z"/>
                <path class="j" d="M221.71,317.09c-1.27-.61-2.49-1.24-3.67-1.89-.44-.24-.88-.49-1.3-.73-.58-.33-1.14-.66-1.69-1-.48-.29-.96-.59-1.42-.89-1.87-1.2-3.61-2.45-5.22-3.74-.27-.21-.53-.42-.79-.64-.22-.19-.45-.38-.68-.56-.03-.03-.06-.06-.1-.08l-113.99,110.7s.06.02.18.06l.17.06c.06.02.14.05.22.07l.61.21.83.27c.31.1.66.22,1.04.34,7.4,2.37,27.66,8.4,55.17,12.83l70.63-115.01Z"/>
              </g>
            </g>
          </g>
        </g>
        <g id="g" data-name="sFqTqn">
          <path class="v" d="M289.97,225.07c12.82-2.18,22.08,9.51,25.61,20.36,5.43,16.66,3.66,49.19-13.72,58.56-25.98,14-25.71-38.43-52.54-28.82-11.82,4.23-14.97,27.09-29.77,19.99-13.7-6.57-15.71-48.02-.96-54.16,15.69-6.54,19.41,18.66,35.42,19.2,21.1.71,21-32.59,35.96-35.13Z"/>
        </g>
      </g>
    </g>
  </g>
</svg>